<svg xmlns="http://www.w3.org/2000/svg" viewBox="0 0 280 280" fill="none" shape-rendering="auto"><metadata xmlns:rdf="http://www.w3.org/1999/02/22-rdf-syntax-ns#" xmlns:xsi="http://www.w3.org/2001/XMLSchema-instance" xmlns:dc="http://purl.org/dc/elements/1.1/" xmlns:dcterms="http://purl.org/dc/terms/"><rdf:RDF><rdf:Description><dc:title>Avataaars</dc:title><dc:creator>Pablo Stanley</dc:creator><dc:source xsi:type="dcterms:URI">https://avataaars.com/</dc:source><dcterms:license xsi:type="dcterms:URI">https://avataaars.com/</dcterms:license><dc:rights>Remix of „Avataaars” (https://avataaars.com/) by „Pablo Stanley”, licensed under „Free for personal and commercial use” (https://avataaars.com/)</dc:rights></rdf:Description></rdf:RDF></metadata><mask id="viewboxMask"><rect width="280" height="280" rx="0" ry="0" x="0" y="0" fill="#fff" /></mask><g mask="url(#viewboxMask)"><g transform="translate(8)"><path d="M132 36a56 56 0 0 0-56 56v6.17A12 12 0 0 0 66 110v14a12 12 0 0 0 10.3 11.88 56.04 56.04 0 0 0 31.7 44.73v18.4h-4a72 72 0 0 0-72 72v9h200v-9a72 72 0 0 0-72-72h-4v-18.39a56.04 56.04 0 0 0 31.7-44.73A12 12 0 0 0 198 124v-14a12 12 0 0 0-10-11.83V92a56 56 0 0 0-56-56Z" fill="#614335"/><path d="M108 180.61v8a55.79 55.79 0 0 0 24 5.39c8.59 0 16.73-1.93 24-5.39v-8a55.79 55.79 0 0 1-24 5.39 55.79 55.79 0 0 1-24-5.39Z" fill="#000" fill-opacity=".1"/><g transform="translate(0 170)"><path d="M108 14.7c-15.52 3.68-27.1 10.83-30.77 19.44A72.02 72.02 0 0 0 32 101v9h200v-9a72.02 72.02 0 0 0-45.23-66.86C183.1 25.53 171.52 18.38 156 14.7V32a24 24 0 1 1-48 0V14.7Z" fill="#b1e2ff"/><path d="M102 63.34a67.1 67.1 0 0 1-7-2.82V110h7V63.34ZM162 63.34a67.04 67.04 0 0 0 7-2.82V98.5a3.5 3.5 0 1 1-7 0V63.34Z" fill="#F4F4F4"/><path d="M187.62 34.49a71.79 71.79 0 0 1 10.83 5.63C197.11 55.62 167.87 68 132 68c30.93 0 56-13.43 56-30 0-1.19-.13-2.36-.38-3.51ZM76.38 34.49a16.48 16.48 0 0 0-.38 3.5c0 16.58 25.07 30 56 30-35.87 0-65.1-12.38-66.45-27.88a71.79 71.79 0 0 1 10.83-5.63Z" fill="#000" fill-opacity=".16"/></g><g transform="translate(78 134)"><path d="M28 26.24c1.36.5 2.84.76 4.4.76 5.31 0 9.81-3.15 11.29-7.49 2.47 2.17 6.17 3.54 10.31 3.54 4.14 0 7.84-1.37 10.31-3.53 1.48 4.35 5.98 7.5 11.3 7.5 1.55 0 3.03-.27 4.4-.76h-.19c-6.33 0-11.8-4.9-11.8-10.56 0-4.18 2.32-7.72 5.69-9.68-5.5.8-9.73 5-9.9 10.1a17.61 17.61 0 0 1-9.8 2.8c-3.8 0-7.25-1.06-9.8-2.8-.18-5.1-4.4-9.3-9.9-10.1a11.18 11.18 0 0 1 5.68 9.68c0 5.66-5.47 10.57-11.8 10.57H28Z" fill="#000" fill-opacity=".6" opacity=".6"/><path d="M17 24a9 9 0 1 0 0-18 9 9 0 0 0 0 18ZM91 24a9 9 0 1 0 0-18 9 9 0 0 0 0 18Z" fill="#FF4646" fill-opacity=".2"/></g><g transform="translate(104 122)"><path fill-rule="evenodd" clip-rule="evenodd" d="M16 8c0 4.42 5.37 8 12 8s12-3.58 12-8" fill="#000" fill-opacity=".16"/></g><g transform="translate(76 90)"><path d="M34.5 30.7 29 25.2l-5.5 5.5c-.4.4-1.1.4-1.6 0l-1.6-1.6c-.4-.4-.4-1.1 0-1.6l5.5-5.5-5.5-5.5c-.4-.5-.4-1.2 0-1.6l1.6-1.6c.4-.4 1.1-.4 1.6 0l5.5 5.5 5.5-5.5c.4-.4 1.1-.4 1.6 0l1.6 1.6c.4.4.4 1.1 0 1.6L32.2 22l5.5 5.5c.4.4.4 1.1 0 1.6l-1.6 1.6c-.4.4-1.1.4-1.6 0ZM88.5 30.7 83 25.2l-5.5 5.5c-.4.4-1.1.4-1.6 0l-1.6-1.6c-.4-.4-.4-1.1 0-1.6l5.5-5.5-5.5-5.5c-.4-.5-.4-1.2 0-1.6l1.6-1.6c.4-.4 1.1-.4 1.6 0l5.5 5.5 5.5-5.5c.4-.4 1.1-.4 1.6 0l1.6 1.6c.4.4.4 1.1 0 1.6L86.2 22l5.5 5.5c.4.4.4 1.1 0 1.6l-1.6 1.6c-.4.4-1.1.4-1.6 0Z" fill="#000" fill-opacity=".6"/></g><g transform="translate(76 82)"><path d="M15.6 14.16c4.49-6.32 14-9.5 23.75-6.36a2 2 0 1 0 1.23-3.81c-11.41-3.68-22.74.1-28.25 7.85a2 2 0 1 0 3.26 2.32ZM96.38 21.16c-3.92-5.51-14.65-8.6-23.9-6.33a2 2 0 0 1-.95-3.88c10.74-2.64 23.17.94 28.1 7.9a2 2 0 1 1-3.25 2.3Z" fill="#000" fill-opacity=".6"/></g><g transform="translate(-1)"><path d="M188.32 138.76C227.9 129.26 255 109.87 255 87.5c0-23.5-29.92-43.72-72.8-52.63l-.31-1.43A40 40 0 0 0 142.82 2h-18.64a40 40 0 0 0-39.07 31.44l-.27 1.21C41.41 43.45 11 63.8 11 87.5c0 22.37 27.1 41.76 66.68 51.26-.2-1.28-.36-2.58-.47-3.9A12 12 0 0 1 67 123v-13a12 12 0 0 1 10-11.83V92c0-8 1.68-15.62 4.7-22.51 8.61-15.69 92.73-16.49 102.66.16A55.82 55.82 0 0 1 189 92v6.17A12 12 0 0 1 199 110v13a12 12 0 0 1-10.2 11.87 56.06 56.06 0 0 1-.48 3.9Z" fill="#e6e6e6"/><path d="M189 92.74c3.85-3.25 6-6.9 6-10.74 0-6.08-5.38-11.65-14.32-15.98 1.64 1.1 2.9 2.3 3.68 3.63A55.82 55.82 0 0 1 189 92v.74ZM157.26 58.99a144.36 144.36 0 0 0-24.26-2c-8.98 0-17.52.78-25.22 2.17 15.16-2.2 34.11-2.3 49.48-.17ZM84.69 66.33C76.12 70.62 71 76.07 71 82c0 3.85 2.15 7.49 6 10.74V92c0-8 1.68-15.62 4.7-22.51a9.94 9.94 0 0 1 2.99-3.16Z" fill="#000" fill-opacity=".5"/></g><g transform="translate(49 72)"></g><g transform="translate(62 42)"></g></g></g></svg>